<svg width="30" height="30" viewBox="0 0 30 30" fill="none" xmlns="http://www.w3.org/2000/svg">
<path d="M25.5492 6.71249L16.7062 1.46249C16.1789 1.15078 15.5883 0.993744 15 0.993744C14.4117 0.993744 13.8211 1.15078 13.2937 1.46484L4.44844 6.71484C3.39375 7.34062 2.74219 8.49843 2.74219 9.75234V20.2523C2.74219 21.5062 3.39141 22.6641 4.44844 23.2898L13.2914 28.5398C13.8187 28.8539 14.407 29.0086 14.9977 29.0086C15.5859 29.0086 16.1766 28.8516 16.7039 28.5398L25.5492 23.2898C26.6039 22.6641 27.2555 21.5039 27.2555 20.2523V9.74999C27.2555 8.49843 26.6063 7.33827 25.5492 6.71249ZM18.7008 23.107L18.7148 23.8617C18.7148 23.9531 18.6563 24.0562 18.5859 24.0937L18.1383 24.3516C18.068 24.3867 18.007 24.3445 18.007 24.2531L18 23.5102C17.618 23.6695 17.2289 23.707 16.9828 23.6086C16.9359 23.5898 16.9148 23.5219 16.9336 23.4422L17.0953 22.7602C17.1094 22.7062 17.1375 22.6523 17.175 22.6195C17.1891 22.6055 17.2031 22.5961 17.2172 22.5891C17.243 22.575 17.2687 22.5727 17.2898 22.582C17.557 22.6711 17.8969 22.6289 18.225 22.4648C18.6422 22.2539 18.9211 21.8273 18.9164 21.4055C18.9117 21.0211 18.7055 20.8641 18.2016 20.8594C17.5594 20.8617 16.9594 20.7352 16.95 19.7883C16.943 19.0102 17.3461 18.1992 17.9883 17.6883L17.9813 16.9266C17.9813 16.8328 18.0375 16.7297 18.1102 16.6922L18.5438 16.4156C18.6141 16.3805 18.675 16.425 18.675 16.5164L18.682 17.2781C19.0008 17.1516 19.2773 17.1164 19.5281 17.175C19.582 17.1891 19.6078 17.2641 19.5844 17.3508L19.4156 18.0258C19.4016 18.0773 19.3734 18.1289 19.3383 18.1617C19.3252 18.1749 19.3102 18.1859 19.2938 18.1945C19.2703 18.2062 19.2492 18.2086 19.2281 18.2062C19.1133 18.1805 18.8414 18.1219 18.4125 18.3375C17.9625 18.5648 17.8055 18.9562 17.8078 19.2469C17.8125 19.5937 17.9883 19.6992 18.6023 19.7086C19.4203 19.7227 19.7719 20.0789 19.7813 20.9016C19.793 21.7078 19.3617 22.5773 18.7008 23.107ZM23.3367 21.8391C23.3367 21.9094 23.3273 21.975 23.2688 22.0078L21.0328 23.3672C20.9742 23.4023 20.9273 23.3719 20.9273 23.3016V22.725C20.9273 22.6547 20.9695 22.6172 21.0281 22.582L23.2313 21.2648C23.2898 21.2297 23.3367 21.2602 23.3367 21.3305V21.8391ZM24.8742 8.92734L16.507 14.0953C15.4641 14.7047 14.6953 15.3891 14.693 16.6477V26.9578C14.693 27.7101 14.9977 28.1977 15.4641 28.3406C15.3117 28.3664 15.1547 28.3852 15 28.3852C14.5102 28.3852 14.0273 28.2516 13.6031 28.0008L4.76016 22.7508C3.89531 22.2375 3.35859 21.2789 3.35859 20.25V9.74999C3.35859 8.72109 3.89531 7.76249 4.76016 7.24921L13.6055 1.99921C14.0297 1.74843 14.5125 1.61484 15.0023 1.61484C15.4922 1.61484 15.975 1.74843 16.3992 1.99921L25.2445 7.24921C25.9734 7.68281 26.4656 8.43046 26.6039 9.27187C26.3063 8.64609 25.6453 8.47734 24.8742 8.92734Z" fill="#30475E"/>
</svg>
