<svg width="30" height="30" viewBox="0 0 30 30" fill="none" xmlns="http://www.w3.org/2000/svg">
<path d="M0.46875 0.234375V29.5312H29.7656V0.234375H0.46875ZM15.9654 25.1984C15.533 26.077 14.7075 26.6543 13.751 26.933C12.2812 27.2705 10.8755 27.078 9.82969 26.4504C9.12984 26.021 8.58328 25.3601 8.21227 24.5986L10.4435 23.2322C10.463 23.2404 10.5216 23.3463 10.5998 23.4832C10.8844 23.9599 11.1298 24.2974 11.6121 24.5344C12.086 24.6961 13.1264 24.7995 13.5281 23.9655C13.7735 23.5413 13.6955 22.1777 13.6955 20.6691C13.6952 18.2984 13.7063 15.9375 13.7063 13.5938H16.4505C16.4505 16.1719 16.4646 18.6136 16.4505 21.1294C16.4564 22.6716 16.5902 24.0464 15.9654 25.1984ZM27.3499 24.423C26.396 27.686 21.0776 27.792 18.9523 25.6362C18.5032 25.1287 18.2217 24.8637 17.9538 24.278C19.0833 23.6283 19.0833 23.6283 20.1823 22.9924C20.7792 23.91 21.3312 24.4146 22.3242 24.6211C23.6714 24.7856 25.0268 24.3227 24.7228 22.8919C24.4104 21.7233 21.9642 21.439 20.2995 20.1893C18.6094 19.0542 18.2133 16.2961 19.6022 14.7202C20.0651 14.1373 20.8545 13.7023 21.6827 13.4932L22.5471 13.3814C24.2067 13.3479 25.2441 13.7862 26.0055 14.6365C26.2174 14.8512 26.3904 15.0827 26.7138 15.5845C25.8298 16.148 25.8326 16.1426 24.5662 16.9624C24.2958 16.3798 23.847 16.0141 23.3726 15.8552C22.6362 15.6321 21.7076 15.8747 21.5149 16.6528C21.4481 16.8926 21.462 17.1157 21.5681 17.5118C21.8665 18.1922 22.8677 18.488 23.7659 18.9007C26.3512 19.9493 27.2243 21.0736 27.439 22.4119C27.6457 23.5641 27.3891 24.3115 27.3499 24.423Z" fill="#30475E"/>
</svg>
