<svg width="185" height="187" viewBox="0 0 185 187" fill="none" xmlns="http://www.w3.org/2000/svg">
<path d="M74 103.575H153" stroke="#30475E" stroke-width="13" stroke-linecap="round"/>
<path d="M74 152.575H153" stroke="#30475E" stroke-width="13" stroke-linecap="round"/>
<path d="M74 128.575H153" stroke="#30475E" stroke-width="13" stroke-linecap="round"/>
<path fill-rule="evenodd" clip-rule="evenodd" d="M8 23.5746C3.58172 23.5746 0 27.1563 0 31.5746V74.5746C0 78.9929 3.58172 82.5746 8 82.5746H113C117.418 82.5746 121 78.9929 121 74.5746V31.5746C121 27.1563 117.418 23.5746 113 23.5746H8ZM10.7045 34.6655V40.7507H21.392V69.5746H28.6875V40.7507H39.375V34.6655H10.7045ZM56.8568 46.5632L49.817 34.6655H41.4477L52.1693 52.12L41.2432 69.5746H49.6977L56.8568 57.6598H57.1295L64.2886 69.5746H72.7773L61.8852 52.12L72.5386 34.6655H64.2034L57.1295 46.5632H56.8568ZM74.6795 34.6655V40.7507H85.367V69.5746H92.6625V40.7507H103.35V34.6655H74.6795Z" fill="#30475E"/>
<path fill-rule="evenodd" clip-rule="evenodd" d="M150.492 34.3647L150.754 34.6326L151.03 34.886L169.058 51.4424C170.296 52.5787 171 54.1817 171 55.8616V166.575C171 169.888 168.314 172.575 165 172.575H63C59.6863 172.575 57 169.888 57 166.575V57.6598H56.8568L49.6977 69.5746H43V166.575C43 177.62 51.9543 186.575 63 186.575H165C176.046 186.575 185 177.62 185 166.575V55.8616C185 50.2619 182.652 44.9187 178.528 41.131L160.5 24.5746L143.711 7.4124C140.05 3.67051 135.069 1.5129 129.835 1.40272L63.421 0.00452558C52.213 -0.231432 43 8.78962 43 20.0001V34.6655H49.817L56.8568 46.5632H57V20.0001C57 16.637 59.7639 13.9306 63.1263 14.0014L129.54 15.3996C131.111 15.4327 132.605 16.08 133.703 17.2025L150.492 34.3647ZM43 37.1926V66.7681L52.1693 52.1201L43 37.1926Z" fill="#30475E"/>
<path d="M131 9.71399C131 6.59855 134.703 4.9694 137 7.07458V7.07458L179.878 45.5166C180.288 45.8847 180.619 46.3329 180.85 46.8335V46.8335C182.088 49.5143 180.129 52.5746 177.177 52.5746H146.581C137.976 52.5746 131 45.5988 131 36.9937V9.71399Z" fill="#30475E"/>
</svg>
