<svg width="29" height="29" viewBox="0 0 29 29" fill="none" xmlns="http://www.w3.org/2000/svg">
<path d="M11.1763 14.0469H17.7826C19.6217 14.0469 21.0703 12.4908 21.0703 10.6441V4.34615C21.0703 2.55358 19.5677 1.2069 17.7727 0.907834C16.6367 0.718655 15.4629 0.632561 14.3319 0.637998C13.2013 0.643209 12.1542 0.739498 11.2042 0.907834C8.405 1.40197 7.92967 2.43736 7.92967 4.34615V6.79687H14.5V7.70312H5.38673C3.46457 7.70312 1.78122 8.8604 1.25491 11.0587C0.647496 13.5781 0.620535 15.1185 1.25491 17.7491C1.72503 19.7071 2.84764 21.0703 4.77003 21.0703H7.02342V18.1141C7.02342 15.9307 8.93289 14.0469 11.1763 14.0469ZM10.7599 5.18601C10.0743 5.18601 9.51878 4.62437 9.51878 3.92972C9.51878 3.23214 10.0741 2.66528 10.7599 2.66528C11.443 2.66528 12.0012 3.23214 12.0012 3.92972C12.001 4.62437 11.4427 5.18601 10.7599 5.18601ZM27.7043 11.0587C27.2289 9.14474 26.3216 7.70312 24.3967 7.70312H21.9765V10.6441C21.9765 12.9211 19.9842 14.7266 17.7826 14.7266H11.1763C9.36653 14.7266 7.92967 16.3864 7.92967 18.1989V24.4973C7.92967 26.2894 9.45783 27.3438 11.2062 27.8581C13.3001 28.4737 15.283 28.5849 17.7881 27.8581C19.4531 27.3758 21.0703 26.4056 21.0703 24.4973V21.9766H14.5V21.0703H24.3967C26.3188 21.0703 27.0355 19.7617 27.7043 17.7489C28.3946 15.677 28.3649 13.7163 27.7043 11.0587ZM18.1988 23.657C18.8846 23.657 19.4402 24.2186 19.4402 24.9137C19.4402 25.6106 18.8849 26.1777 18.1988 26.1777C17.5158 26.1777 16.9577 25.6108 16.9577 24.9137C16.9577 24.2186 17.5158 23.657 18.1988 23.657Z" fill="#30475E"/>
</svg>
